<svg width="100" height="29" viewBox="0 0 100 29" fill="none" xmlns="http://www.w3.org/2000/svg">
<path d="M41.8915 10.5386V14.5976H47.3695V17.4686H41.8915V23.7056H38.1515V7.67864H48.4695V10.5386H41.8915Z" fill="#343333"/>
<path d="M66.192 15.6866C66.192 16.8453 65.9904 17.9233 65.587 18.9206C65.191 19.918 64.63 20.787 63.904 21.5276C63.178 22.261 62.3017 22.8366 61.275 23.2546C60.2557 23.6726 59.1227 23.8816 57.876 23.8816C56.6294 23.8816 55.4927 23.6726 54.466 23.2546C53.4394 22.8366 52.5594 22.261 51.826 21.5276C51.1 20.787 50.5354 19.918 50.132 18.9206C49.736 17.9233 49.538 16.8453 49.538 15.6866C49.538 14.528 49.736 13.45 50.132 12.4526C50.5354 11.4553 51.1 10.59 51.826 9.85664C52.5594 9.12331 53.4394 8.54764 54.466 8.12964C55.4927 7.71164 56.6294 7.50264 57.876 7.50264C59.1227 7.50264 60.2557 7.71531 61.275 8.14064C62.3017 8.55864 63.178 9.13431 63.904 9.86764C64.63 10.601 65.191 11.4663 65.587 12.4636C65.9904 13.461 66.192 14.5353 66.192 15.6866ZM62.386 15.6866C62.386 14.8946 62.2834 14.1833 62.078 13.5526C61.8727 12.9146 61.5757 12.3756 61.187 11.9356C60.8057 11.4956 60.3364 11.1583 59.779 10.9236C59.2217 10.689 58.5874 10.5716 57.876 10.5716C57.1574 10.5716 56.5157 10.689 55.951 10.9236C55.3937 11.1583 54.9207 11.4956 54.532 11.9356C54.1507 12.3756 53.8574 12.9146 53.652 13.5526C53.4467 14.1833 53.344 14.8946 53.344 15.6866C53.344 16.486 53.4467 17.2046 53.652 17.8426C53.8574 18.4733 54.1507 19.0086 54.532 19.4486C54.9207 19.8886 55.3937 20.226 55.951 20.4606C56.5157 20.688 57.1574 20.8016 57.876 20.8016C58.5874 20.8016 59.2217 20.688 59.779 20.4606C60.3364 20.226 60.8057 19.8886 61.187 19.4486C61.5757 19.0086 61.8727 18.4733 62.078 17.8426C62.2834 17.2046 62.386 16.486 62.386 15.6866Z" fill="#343333"/>
<path d="M73.594 15.2136C74.1 15.2136 74.529 15.1513 74.881 15.0266C75.2403 14.8946 75.5337 14.715 75.761 14.4876C75.9883 14.2603 76.1533 13.9963 76.256 13.6956C76.3587 13.3876 76.41 13.0576 76.41 12.7056C76.41 12.0016 76.179 11.4516 75.717 11.0556C75.2623 10.6596 74.5547 10.4616 73.594 10.4616H72.098V15.2136H73.594ZM81.492 23.7056H78.126C77.5027 23.7056 77.0553 23.471 76.784 23.0016L74.122 18.3486C73.9973 18.1506 73.858 18.0076 73.704 17.9196C73.55 17.8243 73.33 17.7766 73.044 17.7766H72.098V23.7056H68.38V7.67864H73.594C74.7527 7.67864 75.739 7.79964 76.553 8.04164C77.3743 8.27631 78.0417 8.60631 78.555 9.03164C79.0757 9.45697 79.4533 9.95931 79.688 10.5386C79.9227 11.118 80.04 11.7486 80.04 12.4306C80.04 12.9513 79.9703 13.4426 79.831 13.9046C79.6917 14.3666 79.4863 14.7956 79.215 15.1916C78.9437 15.5803 78.6063 15.9286 78.203 16.2366C77.807 16.5446 77.3487 16.7976 76.828 16.9956C77.07 17.1203 77.2973 17.278 77.51 17.4686C77.7227 17.652 77.9133 17.872 78.082 18.1286L81.492 23.7056Z" fill="#343333"/>
<path d="M94.0337 10.6266H89.5237V23.7056H85.8057V10.6266H81.2957V7.67864H94.0337V10.6266Z" fill="#343333"/>
<path d="M99.663 23.7056H95.923V7.67864H99.663V23.7056Z" fill="#343333"/>
<g clip-path="url(#clip0)">
<path fill-rule="evenodd" clip-rule="evenodd" d="M13.3026 8.14128L9.8064 4.64513L0.141774 14.3097L3.63793 17.8059L6.49114 14.9527C5.97738 13.6728 6.23893 12.1543 7.27578 11.1174C8.31263 10.0806 9.8312 9.81901 11.1111 10.3328L13.3026 8.14128Z" fill="#343333"/>
<path d="M24.2343 11.1941L27.7304 14.6902L14.1263 28.2943L10.6301 24.7982L24.2343 11.1941Z" fill="#343333"/>
<path fill-rule="evenodd" clip-rule="evenodd" d="M22.4863 9.44606L18.9901 5.94991L12.942 11.998C13.6329 13.3346 13.4179 15.0181 12.2972 16.1388C11.1765 17.2596 9.49299 17.4745 8.15642 16.7836L5.386 19.554L8.88216 23.0502L22.4863 9.44606Z" fill="#4384E6"/>
</g>
<defs>
<clipPath id="clip0">
<rect width="19.7772" height="19.2391" fill="white" transform="translate(13.7458 0.705643) rotate(45)"/>
</clipPath>
</defs>
</svg>
