<svg width="100" height="28" viewBox="0 0 100 28" fill="none" xmlns="http://www.w3.org/2000/svg">
<path d="M41.9534 9.8734V13.9324H47.4314V16.8034H41.9534V23.0404H38.2134V7.0134H48.5314V9.8734H41.9534Z" fill="white"/>
<path d="M66.2539 15.0214C66.2539 16.1801 66.0523 17.2581 65.6489 18.2554C65.2529 19.2527 64.6919 20.1217 63.9659 20.8624C63.2399 21.5957 62.3636 22.1714 61.3369 22.5894C60.3176 23.0074 59.1846 23.2164 57.9379 23.2164C56.6913 23.2164 55.5546 23.0074 54.5279 22.5894C53.5013 22.1714 52.6213 21.5957 51.8879 20.8624C51.1619 20.1217 50.5973 19.2527 50.1939 18.2554C49.7979 17.2581 49.5999 16.1801 49.5999 15.0214C49.5999 13.8627 49.7979 12.7847 50.1939 11.7874C50.5973 10.7901 51.1619 9.92474 51.8879 9.1914C52.6213 8.45807 53.5013 7.8824 54.5279 7.4644C55.5546 7.0464 56.6913 6.8374 57.9379 6.8374C59.1846 6.8374 60.3176 7.05007 61.3369 7.4754C62.3636 7.8934 63.2399 8.46907 63.9659 9.2024C64.6919 9.93574 65.2529 10.8011 65.6489 11.7984C66.0523 12.7957 66.2539 13.8701 66.2539 15.0214ZM62.4479 15.0214C62.4479 14.2294 62.3453 13.5181 62.1399 12.8874C61.9346 12.2494 61.6376 11.7104 61.2489 11.2704C60.8676 10.8304 60.3983 10.4931 59.8409 10.2584C59.2836 10.0237 58.6493 9.9064 57.9379 9.9064C57.2193 9.9064 56.5776 10.0237 56.0129 10.2584C55.4556 10.4931 54.9826 10.8304 54.5939 11.2704C54.2126 11.7104 53.9193 12.2494 53.7139 12.8874C53.5086 13.5181 53.4059 14.2294 53.4059 15.0214C53.4059 15.8207 53.5086 16.5394 53.7139 17.1774C53.9193 17.8081 54.2126 18.3434 54.5939 18.7834C54.9826 19.2234 55.4556 19.5607 56.0129 19.7954C56.5776 20.0227 57.2193 20.1364 57.9379 20.1364C58.6493 20.1364 59.2836 20.0227 59.8409 19.7954C60.3983 19.5607 60.8676 19.2234 61.2489 18.7834C61.6376 18.3434 61.9346 17.8081 62.1399 17.1774C62.3453 16.5394 62.4479 15.8207 62.4479 15.0214Z" fill="white"/>
<path d="M73.6559 14.5484C74.1619 14.5484 74.5909 14.4861 74.9429 14.3614C75.3022 14.2294 75.5956 14.0497 75.8229 13.8224C76.0502 13.5951 76.2152 13.3311 76.3179 13.0304C76.4206 12.7224 76.4719 12.3924 76.4719 12.0404C76.4719 11.3364 76.2409 10.7864 75.7789 10.3904C75.3242 9.9944 74.6166 9.7964 73.6559 9.7964H72.1599V14.5484H73.6559ZM81.5539 23.0404H78.1879C77.5646 23.0404 77.1172 22.8057 76.8459 22.3364L74.1839 17.6834C74.0592 17.4854 73.9199 17.3424 73.7659 17.2544C73.6119 17.1591 73.3919 17.1114 73.1059 17.1114H72.1599V23.0404H68.4419V7.0134H73.6559C74.8146 7.0134 75.8009 7.1344 76.6149 7.3764C77.4362 7.61107 78.1036 7.94107 78.6169 8.3664C79.1376 8.79174 79.5152 9.29407 79.7499 9.8734C79.9846 10.4527 80.1019 11.0834 80.1019 11.7654C80.1019 12.2861 80.0322 12.7774 79.8929 13.2394C79.7536 13.7014 79.5482 14.1304 79.2769 14.5264C79.0056 14.9151 78.6682 15.2634 78.2649 15.5714C77.8689 15.8794 77.4106 16.1324 76.8899 16.3304C77.1319 16.4551 77.3592 16.6127 77.5719 16.8034C77.7846 16.9867 77.9752 17.2067 78.1439 17.4634L81.5539 23.0404Z" fill="white"/>
<path d="M94.0956 9.9614H89.5856V23.0404H85.8676V9.9614H81.3576V7.0134H94.0956V9.9614Z" fill="white"/>
<path d="M99.7249 23.0404H95.9849V7.0134H99.7249V23.0404Z" fill="white"/>
<g clip-path="url(#clip0)">
<path d="M13.3644 7.47614L9.86824 3.97998L0.203613 13.6446L3.69977 17.1408L6.55302 14.2875C6.03921 13.0076 6.30074 11.489 7.33762 10.4521C8.3745 9.41525 9.89311 9.15371 11.173 9.66752L13.3644 7.47614Z" fill="white"/>
<path fill-rule="evenodd" clip-rule="evenodd" d="M22.5481 8.78083L19.052 5.28467L13.0039 11.3328C13.6947 12.6694 13.4798 14.3528 12.3591 15.4736C11.2384 16.5943 9.55489 16.8092 8.21833 16.1183L5.44788 18.8888L8.94403 22.3849L22.5481 8.78083Z" fill="#4384E6"/>
<rect x="24.2961" y="10.5288" width="4.94431" height="19.2391" transform="rotate(45 24.2961 10.5288)" fill="white"/>
</g>
<defs>
<clipPath id="clip0">
<rect width="19.7772" height="19.2391" fill="white" transform="translate(13.8077 0.0405273) rotate(45)"/>
</clipPath>
</defs>
</svg>
